 <svg
      id="cat"
      width="214"
      height="214"
      viewBox="0 0 214 214"
      xmlns="http://www.w3.org/2000/svg"
      {...props}          {/* let callers override style, className, … */}
    >
      {/* background */}
      <rect width="214" height="214" fill="#1E1E1E" />
      <rect width="214" height="214" fill="white" />

      {/* ---------- ORECCHIE ---------- */}
      <g id="ears">
        <g id="earLeft">
          <path d="M37.8372 20.573L67.8669 37.9108L37.8372 55.2486V20.573Z" fill="#FCC058" />
          <path
            d="M54.6276 37.9111L44.456 43.7837L44.4554 32.0386L54.6276 37.9111Z"
            fill="white"
            stroke="black"
            strokeWidth="2"
          />
        </g>

        <g id="earRight">
          <path d="M116.931 20.573L86.9013 37.9108L116.931 55.2486V20.573Z" fill="#FCC058" />
          <path
            d="M100.14 37.9111L110.312 43.7837L110.313 32.0386L100.14 37.9111Z"
            fill="white"
            stroke="black"
            strokeWidth="2"
          />
        </g>
      </g>

      {/* ---------- TESTA ---------- */}
      <g id="head">
        <circle cx="77.384" cy="79.8063" r="47.3867" fill="#FCC058" />

        <defs>
          <mask id="mouthLeftMask" fill="white">
            <path d="M64.3442 79.8063c0 3.137-1.246 6.145-3.464 8.363-2.218 2.218-5.226 3.464-8.363 3.464s-6.145-1.246-8.363-3.464c-2.218-2.218-3.464-5.226-3.464-8.363h23.654Z" />
          </mask>
          <mask id="mouthRightMask" fill="white">
            <path d="M114.08 79.8063c0 3.137-1.246 6.145-3.464 8.363-2.218 2.218-5.226 3.464-8.363 3.464s-6.145-1.246-8.363-3.464c-2.218-2.218-3.464-5.226-3.464-8.363h23.654Z" />
          </mask>
        </defs>

        <path
          d="M64.3442 79.8063c0 3.137-1.246 6.145-3.464 8.363-2.218 2.218-5.226 3.464-8.363 3.464s-6.145-1.246-8.363-3.464c-2.218-2.218-3.464-5.226-3.464-8.363h23.654Z"
          fill="white"
          stroke="black"
          strokeWidth="4"
          mask="url(#mouthLeftMask)"
        />

        <path
          d="M114.08 79.8063c0 3.137-1.246 6.145-3.464 8.363-2.218 2.218-5.226 3.464-8.363 3.464s-6.145-1.246-8.363-3.464c-2.218-2.218-3.464-5.226-3.464-8.363h23.654Z"
          fill="white"
          stroke="black"
          strokeWidth="4"
          mask="url(#mouthRightMask)"
        />

        {/* baffi  */}
        <line x1="46.3029" y1="107.637" x2="108.983" y2="107.637" stroke="black" strokeLinecap="round" />
        <line
          x1="0.5"
          y1="-0.5"
          x2="62.2445"
          y2="-0.5"
          transform="matrix(0.97503 -0.222072 -0.34418 -0.938904 47.0542 113.96)"
          stroke="black"
          strokeLinecap="round"
        />
        <line
          x1="0.5"
          y1="-0.5"
          x2="62.2445"
          y2="-0.5"
          transform="matrix(0.97503 0.222072 -0.34418 0.938904 47.0542 101.17)"
          stroke="black"
          strokeLinecap="round"
        />
        <line x1="77.423" y1="107.529" x2="77.423" y2="114.041" stroke="black" strokeLinecap="round" />
        <path d="M78.01 105.873c-.366.294-.886.294-1.252 0l-1.804-1.448c-.736-.592-.318-1.78.626-1.78h3.61c.944 0 1.362 1.188.626 1.78l-1.806 1.448Z" fill="black" />
        <path d="M72.8598 113.293c3.363 2.26 7.433.941 9.047 0" stroke="black" strokeLinecap="round" />
      </g>

      {/* ---------- OCCHI (placeholder) ---------- */}
      <g id="eyes"></g>

      {/* ---------- CODA ---------- */}
      <g id="tail">
        <rect x="173.989" y="92.2574" width="13.9589" height="36.5317" rx="6.97944" fill="#FCC058" />
      </g>

      {/* corpo + zampe */}
      <rect x="52.9147" y="130.992" width="140.586" height="41.5093" rx="20.7546" fill="#FCC058" />
      <rect width="13.9589" height="42.182" rx="6.97944" transform="matrix(-1 0 0 1 79.6456 161.255)" fill="#FCC058" />
      <rect width="13.9589" height="37.1116" rx="6.97944" transform="matrix(-1 0 0 1 97.4032 161.255)" fill="#FCC058" />
      <rect width="13.9589" height="42.182" rx="6.97944" transform="matrix(-1 0 0 1 163.017 161.255)" fill="#FCC058" />
      <rect width="13.9589" height="37.1116" rx="6.97944" transform="matrix(-1 0 0 1 180.774 161.255)" fill="#FCC058" />

      {/* stellina */}
      <path d="M183.322 156.164L183.413 153.664L181.299 155.005L180.754 154.051L182.981 152.891L180.754 151.732L181.299 150.778L183.413 152.119L183.322 149.619H184.413L184.322 152.119L186.436 150.778L186.981 151.732L184.754 152.891L186.981 154.051L186.436 155.005L184.322 153.664L184.413 156.164H183.322Z" />
    </svg>