<svg width="214" height="214" viewBox="0 0 214 214" fill="none" xmlns="http://www.w3.org/2000/svg">

<path d="M37.8367 20.573L67.8667 37.9108L37.8367 55.2486L37.8367 20.573Z" fill="#D79D39"/>
<path d="M54.6276 37.9111L44.456 43.7837L44.4554 32.0386L54.6276 37.9111Z" fill="white" stroke="black" stroke-width="2"/>
<path d="M116.931 20.573L86.9013 37.9108L116.931 55.2486L116.931 20.573Z" fill="#D79D39"/>
<path d="M100.14 37.9111L110.312 43.7837L110.313 32.0386L100.14 37.9111Z" fill="white" stroke="black" stroke-width="2"/>
<circle cx="77.384" cy="79.8063" r="47.3867" fill="#FCC058"/>
<rect width="13.9589" height="42.182" rx="6.97944" transform="matrix(-1 0 0 1 79.6456 161.255)" fill="#FCC058"/>
<rect width="13.9589" height="37.1116" rx="6.97944" transform="matrix(-1 0 0 1 97.4032 161.255)" fill="#D79D39"/>
<rect width="13.9589" height="42.182" rx="6.97944" transform="matrix(-1 0 0 1 163.017 161.255)" fill="#FCC058"/>
<rect width="13.9589" height="37.1116" rx="6.97944" transform="matrix(-1 0 0 1 180.774 161.255)" fill="#D79D39"/>
<rect x="52.9147" y="130.992" width="140.586" height="41.5093" rx="20.7546" fill="#FCC058"/>
<rect x="173.989" y="92.2574" width="13.9589" height="36.5317" rx="6.97944" fill="#FCC058"/>
<mask id="path-12-inside-1_0_1" fill="white">
<path d="M64.3442 79.8063C64.3442 82.9434 63.098 85.9519 60.8798 88.1701C58.6616 90.3883 55.6531 91.6344 52.5161 91.6344C49.3791 91.6344 46.3706 90.3883 44.1524 88.1701C41.9342 85.9519 40.688 82.9434 40.688 79.8063L52.5161 79.8063H64.3442Z"/>
</mask>
<path d="M64.3442 79.8063C64.3442 82.9434 63.098 85.9519 60.8798 88.1701C58.6616 90.3883 55.6531 91.6344 52.5161 91.6344C49.3791 91.6344 46.3706 90.3883 44.1524 88.1701C41.9342 85.9519 40.688 82.9434 40.688 79.8063L52.5161 79.8063H64.3442Z" fill="white" stroke="black" stroke-width="4" mask="url(#path-12-inside-1_0_1)"/>
<mask id="path-13-inside-2_0_1" fill="white">
<path d="M114.08 79.8063C114.08 82.9434 112.834 85.9519 110.616 88.1701C108.397 90.3883 105.389 91.6344 102.252 91.6344C99.1149 91.6344 96.1064 90.3883 93.8882 88.1701C91.67 85.9519 90.4238 82.9434 90.4238 79.8063L102.252 79.8063H114.08Z"/>
</mask>
<path d="M114.08 79.8063C114.08 82.9434 112.834 85.9519 110.616 88.1701C108.397 90.3883 105.389 91.6344 102.252 91.6344C99.1149 91.6344 96.1064 90.3883 93.8882 88.1701C91.67 85.9519 90.4238 82.9434 90.4238 79.8063L102.252 79.8063H114.08Z" fill="white" stroke="black" stroke-width="4" mask="url(#path-13-inside-2_0_1)"/>
<line x1="46.3029" y1="107.637" x2="108.983" y2="107.637" stroke="black" stroke-linecap="round" stroke-linejoin="round"/>
<line x1="0.5" y1="-0.5" x2="62.2445" y2="-0.5" transform="matrix(0.97503 -0.222072 -0.34418 -0.938904 47.0542 113.96)" stroke="black" stroke-linecap="round" stroke-linejoin="round"/>
<line x1="0.5" y1="-0.5" x2="62.2445" y2="-0.5" transform="matrix(0.97503 0.222072 -0.34418 0.938904 47.0542 101.17)" stroke="black" stroke-linecap="round" stroke-linejoin="round"/>
<line x1="77.423" y1="107.529" x2="77.423" y2="114.041" stroke="black" stroke-linecap="round"/>
<path d="M78.01 105.873C77.6443 106.167 77.1237 106.167 76.758 105.873L74.9532 104.425C74.2167 103.833 74.6348 102.645 75.5792 102.645L79.1888 102.645C80.1332 102.645 80.5513 103.833 79.8147 104.425L78.01 105.873Z" fill="black" stroke="black"/>
<path d="M72.8598 113.293C76.2232 115.553 80.2935 114.234 81.9082 113.293" stroke="black" stroke-linecap="round"/>
<path d="M183.322 156.164L183.413 153.664L181.299 155.005L180.754 154.051L182.981 152.891L180.754 151.732L181.299 150.778L183.413 152.119L183.322 149.619H184.413L184.322 152.119L186.436 150.778L186.981 151.732L184.754 152.891L186.981 154.051L186.436 155.005L184.322 153.664L184.413 156.164H183.322Z" fill="black"/>
</svg>
